<?xml version="1.0" encoding="UTF-8"?>
<svg id="Layer_2" data-name="Layer 2" xmlns="http://www.w3.org/2000/svg" viewBox="0 0 249.09 294.69">
  <defs>
    <style>
      .cls-1 {
        fill: #ee2528;
      }

      .cls-2 {
        fill: #fff;
      }

      .cls-3 {
        fill: #3e3d3d;
      }
    </style>
  </defs>
  <g id="Layer_1-2" data-name="Layer 1">
    <g>
      <rect class="cls-2" width="249.09" height="294.69" rx="15.69" ry="15.69"/>
      <g>
        <path class="cls-3" d="m47.04,257.44h5.1c1.31,0,1.93.62,1.93,1.93v2.56c0,1.31-.62,1.93-1.93,1.93h-3.12v3.23h-1.99v-9.65Zm4.77,4.61c.21,0,.28-.07.28-.28v-2.23c0-.21-.07-.28-.28-.28h-2.79v2.79h2.79Z"/>
        <path class="cls-3" d="m55.44,265.16v-5.79c0-1.31.62-1.93,1.93-1.93h3.54c1.31,0,1.93.62,1.93,1.93v5.79c0,1.31-.62,1.93-1.93,1.93h-3.54c-1.31,0-1.93-.62-1.93-1.93Zm5.14.11c.21,0,.28-.07.28-.28v-5.46c0-.21-.07-.28-.28-.28h-2.88c-.21,0-.28.07-.28.28v5.46c0,.21.07.28.28.28h2.88Z"/>
        <path class="cls-3" d="m63.78,257.44h2.07l1.5,7.09,1.78-7.09h1.68l1.78,7.09,1.5-7.09h1.99l-2.43,9.65h-2.1l-1.59-6.29-1.59,6.29h-2.19l-2.41-9.65Z"/>
        <path class="cls-3" d="m77.42,257.44h6.5v1.82h-4.51v2h3.65v1.79h-3.65v2.22h4.51v1.82h-6.5v-9.65Z"/>
        <path class="cls-3" d="m92.99,267.09h-2.14l-1.6-3.41h-1.6v3.41h-1.99v-9.65h5.09c1.31,0,1.93.62,1.93,1.93v2.33c0,1.09-.43,1.71-1.34,1.88l1.64,3.52Zm-2.56-5.17c.21,0,.28-.07.28-.28v-2.14c0-.21-.07-.28-.28-.28h-2.77v2.69h2.77Z"/>
        <path class="cls-3" d="m94.63,257.44h6.5v1.82h-4.51v2.08h3.65v1.79h-3.65v3.96h-1.99v-9.65Z"/>
        <path class="cls-3" d="m102.53,265.16v-7.72h1.99v7.56c0,.21.07.28.28.28h2.7c.21,0,.28-.07.28-.28v-7.56h1.99v7.72c0,1.31-.62,1.93-1.93,1.93h-3.36c-1.31,0-1.93-.62-1.93-1.93Z"/>
        <path class="cls-3" d="m111.84,257.44h1.99v7.83h4.16v1.82h-6.15v-9.65Z"/>
        <path class="cls-3" d="m122.5,257.44h5.1c1.31,0,1.93.62,1.93,1.93v2.56c0,1.31-.62,1.93-1.93,1.93h-3.12v3.23h-1.99v-9.65Zm4.77,4.61c.21,0,.28-.07.28-.28v-2.23c0-.21-.07-.28-.28-.28h-2.79v2.79h2.79Z"/>
        <path class="cls-3" d="m138.45,267.09h-2.14l-1.6-3.41h-1.6v3.41h-1.99v-9.65h5.09c1.31,0,1.93.62,1.93,1.93v2.33c0,1.09-.43,1.71-1.34,1.88l1.64,3.52Zm-2.56-5.17c.21,0,.28-.07.28-.28v-2.14c0-.21-.07-.28-.28-.28h-2.77v2.69h2.77Z"/>
        <path class="cls-3" d="m139.86,265.16v-5.79c0-1.31.62-1.93,1.93-1.93h3.54c1.31,0,1.93.62,1.93,1.93v5.79c0,1.31-.62,1.93-1.93,1.93h-3.54c-1.31,0-1.93-.62-1.93-1.93Zm5.14.11c.21,0,.28-.07.28-.28v-5.46c0-.21-.07-.28-.28-.28h-2.88c-.21,0-.28.07-.28.28v5.46c0,.21.07.28.28.28h2.88Z"/>
        <path class="cls-3" d="m150.92,259.23h-2.62v-1.79h7.23v1.79h-2.62v7.86h-1.99v-7.86Z"/>
        <path class="cls-3" d="m156.96,257.44h6.5v1.82h-4.51v2h3.65v1.79h-3.65v2.22h4.51v1.82h-6.5v-9.65Z"/>
        <path class="cls-3" d="m164.86,265.16v-5.79c0-1.31.62-1.93,1.93-1.93h3.2c1.31,0,1.93.62,1.93,1.93v1.57h-1.99v-1.41c0-.21-.07-.28-.28-.28h-2.54c-.21,0-.28.07-.28.28v5.46c0,.21.07.28.28.28h2.54c.21,0,.28-.07.28-.28v-1.41h1.99v1.57c0,1.31-.62,1.93-1.93,1.93h-3.2c-1.31,0-1.93-.62-1.93-1.93Z"/>
        <path class="cls-3" d="m175.45,259.23h-2.62v-1.79h7.23v1.79h-2.62v7.86h-1.99v-7.86Z"/>
        <path class="cls-3" d="m181.49,257.44h1.99v9.65h-1.99v-9.65Z"/>
        <path class="cls-3" d="m185.42,265.16v-5.79c0-1.31.62-1.93,1.93-1.93h3.54c1.31,0,1.93.62,1.93,1.93v5.79c0,1.31-.62,1.93-1.93,1.93h-3.54c-1.31,0-1.93-.62-1.93-1.93Zm5.14.11c.21,0,.28-.07.28-.28v-5.46c0-.21-.07-.28-.28-.28h-2.88c-.21,0-.28.07-.28.28v5.46c0,.21.07.28.28.28h2.88Z"/>
        <path class="cls-3" d="m194.77,257.44h2.07l3.65,6.22v-6.22h1.93v9.65h-1.93l-3.79-6.44v6.44h-1.93v-9.65Z"/>
        <g>
          <path class="cls-3" d="m44.75,133.26h7.07v1.37h-5.57v3.28h4.64v1.37h-4.64v3.53h5.57v1.37h-7.07v-10.93Z"/>
          <path class="cls-3" d="m53.53,142.01v-1.2h1.47v1.22c0,.61.23.84.86.84h3.03c.62,0,.86-.23.86-.84v-1.31c0-.67-.28-.87-.94-1.03l-3-.67c-1.28-.28-2.25-.67-2.25-2.23v-1.33c0-1.48.7-2.19,2.19-2.19h3.14c1.48,0,2.19.7,2.19,2.19v1.08h-1.48v-1.09c0-.61-.23-.84-.84-.84h-2.84c-.61,0-.84.23-.84.84v1.14c0,.67.28.87.92,1.01l3.01.69c1.26.28,2.25.67,2.25,2.23v1.5c0,1.48-.7,2.19-2.19,2.19h-3.34c-1.48,0-2.19-.7-2.19-2.19Z"/>
          <path class="cls-3" d="m65.77,134.62h-3.22v-1.36h7.95v1.36h-3.23v9.57h-1.5v-9.57Z"/>
          <path class="cls-3" d="m70.69,142.32h1.83v1.87h-1.83v-1.87Z"/>
        </g>
        <g>
          <path class="cls-3" d="m174.87,134.81l-2.2.78v-1.33l2.45-1h1.25v10.93h-1.5v-9.38Z"/>
          <path class="cls-3" d="m179.21,142.01v-.92h1.5v.87c0,.61.25.86.86.86h2.53c.61,0,.86-.25.86-.86v-3.2c-.69.72-1.39,1.25-3.15,1.25-2.03,0-2.73-.7-2.73-2.19v-2.37c0-1.48.7-2.19,2.19-2.19h3.01c1.48,0,2.19.7,2.19,2.19v6.56c0,1.48-.7,2.19-2.19,2.19h-2.87c-1.48,0-2.19-.7-2.19-2.19Zm5.75-4.17v-2.34c0-.62-.23-.86-.86-.86h-2.69c-.61,0-.84.23-.84.86v2.31c0,.62.23.86,1.37.86,1.48,0,2.25-.34,3.01-.83Z"/>
          <path class="cls-3" d="m188.53,142.01v-1.76c0-.86.36-1.41,1.14-1.66-.66-.3-1.01-.8-1.01-1.66v-1.48c0-1.48.7-2.19,2.19-2.19h3.12c1.48,0,2.19.7,2.19,2.19v1.48c0,.86-.37,1.36-1.02,1.66.77.25,1.14.8,1.14,1.66v1.76c0,1.48-.7,2.19-2.19,2.19h-3.37c-1.48,0-2.19-.7-2.19-2.19Zm5.39.83c.62,0,.86-.23.86-.86v-1.87c0-.62-.23-.86-.86-.86h-3.04c-.61,0-.84.23-.84.86v1.87c0,.62.23.86.84.86h3.04Zm-.12-4.93c.62,0,.86-.23.86-.84v-1.58c0-.62-.23-.86-.86-.86h-2.8c-.61,0-.84.23-.84.86v1.58c0,.61.23.84.84.84h2.8Z"/>
          <path class="cls-3" d="m200.15,134.81l-2.2.78v-1.33l2.45-1h1.25v10.93h-1.5v-9.38Z"/>
        </g>
        <path class="cls-1" d="m124.55,173.64c-3.48,0-6.82.23-9.92.65v74.29h19.86v-74.29c-3.11-.42-6.45-.65-9.93-.65Z"/>
        <path class="cls-1" d="m47.08,234.22v-45.21c0-9.72,4.86-14.36,14.58-14.36h28.2c9.72,0,14.15,4.65,14.15,14.36v8.31l-19.86,5.52v-9.82c0-1.48-.42-1.9-1.9-1.9h-13.41c-1.48,0-1.9.42-1.9,1.9v37.18c0,1.48.42,1.9,1.9,1.9h13.41c1.48,0,1.9-.42,1.9-1.9v-9.82h19.86v13.84c0,9.72-4.65,14.36-14.36,14.36h-28.2c-9.72,0-14.36-4.65-14.36-14.36Z"/>
        <path class="cls-1" d="m145.1,234.22v-45.21c0-9.72,4.86-14.36,14.58-14.36h28.2c9.72,0,14.15,4.65,14.15,14.36v8.31l-19.86,5.52v-9.82c0-1.48-.42-1.9-1.9-1.9h-13.41c-1.48,0-1.9.42-1.9,1.9v37.18c0,1.48.42,1.9,1.9,1.9h13.41c1.48,0,1.9-.42,1.9-1.9v-9.82h19.86v13.84c0,9.72-4.65,14.36-14.36,14.36h-28.2c-9.72,0-14.36-4.65-14.36-14.36Z"/>
        <path class="cls-3" d="m36.77,106.58c10.42,8.41,23.7,15.48,38.97,20.69,6.85-2.97,12.77-7.16,17.33-12.19,1.07-1.18,2.07-2.42,2.98-3.69.87-1.22,1.67-2.47,2.39-3.76-1.24-1.19-2.43-2.48-3.56-3.85-3.76-4.56-6.7-9.86-8.75-15.74-2.11-6.04-3.17-12.45-3.17-19.05,0-3.61.32-7.17.96-10.64.18-.97.38-1.93.6-2.88h0c.16-.68.33-1.36.52-2.03.33-1.18.69-2.35,1.09-3.5.03-.1.07-.19.1-.29,2.31-1.03,4.51-2.19,6.6-3.49,1.73-1.07,3.37-2.24,4.93-3.49,2.32-1.87,4.39-3.88,6.19-6,1.91-2.25,3.51-4.64,4.8-7.13-.57-.02-1.14-.03-1.7-.04h0c-1.58-.03-3.16-.05-4.75-.05-.81,0-1.61,0-2.42.01-.17,0-.33,0-.5,0h0c-16.15.22-31.55,2.26-45.65,5.79-2.8,3.02-5.49,6.09-8.04,9.19-1.44,1.75-2.84,3.5-4.2,5.27-.46.59-.91,1.19-1.36,1.78-1,1.33-1.97,2.66-2.93,4-7.38,10.35-13.4,20.94-17.97,31.41,3.39,5.73,7.91,11.14,13.39,16.13,1.32,1.2,2.7,2.38,4.13,3.54Z"/>
        <path class="cls-3" d="m97.46,121.02c-.79,1.43-1.61,2.86-2.47,4.28-1.32,2.18-2.7,4.3-4.14,6.36-7.02,10.07-15.3,18.57-24.25,25.26-1.43,1.07-2.87,2.09-4.33,3.06-6.97,4.66-14.28,8.25-21.67,10.67-3.08,1.01-6.17,1.82-9.26,2.42,5.62.82,11.41.82,17.25.06,5.22-.68,10.49-1.98,15.69-3.85,1.53-.55,3.06-1.15,4.58-1.8,14.21-6.07,27.82-16.43,38.95-30.34-.03-.13-.06-.27-.1-.4-2.17-6.87-5.8-12.44-10.26-15.72Z"/>
        <path class="cls-3" d="m211.87,55.5c-.95-1.34-1.93-2.67-2.93-4-.45-.6-.9-1.19-1.36-1.78-1.36-1.77-2.76-3.52-4.2-5.27-2.56-3.1-5.24-6.17-8.04-9.19-14.1-3.53-29.5-5.57-45.65-5.79h0c-.17,0-.33,0-.5,0-.8,0-1.61-.01-2.42-.01-1.59,0-3.18.02-4.75.05h0c-.57.01-1.14.03-1.7.04,1.29,2.49,2.89,4.87,4.8,7.13,1.8,2.13,3.87,4.14,6.19,6,1.56,1.25,3.2,2.41,4.93,3.49,2.08,1.3,4.29,2.46,6.6,3.49.04.1.07.19.1.29.4,1.15.77,2.32,1.09,3.5.19.67.36,1.35.52,2.03h0c.23.95.43,1.91.6,2.88.64,3.47.96,7.03.96,10.64,0,6.6-1.07,13.01-3.17,19.05-2.05,5.88-4.99,11.18-8.75,15.74-1.13,1.37-2.32,2.66-3.56,3.85.72,1.29,1.52,2.54,2.39,3.76.92,1.27,1.91,2.5,2.98,3.69,4.56,5.03,10.48,9.22,17.33,12.19,15.27-5.21,28.55-12.28,38.97-20.69,1.43-1.15,2.81-2.33,4.13-3.54,5.48-5,10-10.41,13.39-16.13-4.57-10.46-10.59-21.06-17.97-31.41Z"/>
        <path class="cls-3" d="m186.81,159.97c-1.46-.97-2.9-1.99-4.33-3.06-8.95-6.69-17.23-15.19-24.25-25.26-1.43-2.05-2.81-4.17-4.14-6.36-.86-1.42-1.68-2.84-2.47-4.28-4.46,3.28-8.09,8.85-10.26,15.72-.03.13-.07.27-.1.4,11.13,13.91,24.74,24.26,38.95,30.34,1.52.65,3.04,1.25,4.58,1.8,5.21,1.87,10.47,3.17,15.69,3.85,5.84.76,11.63.76,17.25-.06-3.09-.6-6.18-1.4-9.26-2.42-7.39-2.42-14.7-6.02-21.67-10.67Z"/>
        <path class="cls-3" d="m148.2,115.71c.15-.15.3-.31.46-.46-.68-1.42-1.33-2.84-1.94-4.26-.4-.94-.79-1.88-1.17-2.82-.28-.55-.54-1.11-.79-1.68-.97-2.19-1.75-4.46-2.31-6.79-.11-.45-.21-.91-.3-1.37-.51-2.51-.78-5.09-.78-7.72,0-6.32,1.54-12.35,4.33-17.84,1.99-3.92,4.62-7.57,7.78-10.86.21-.22.42-.43.63-.65.31,1.87.5,3.77.58,5.69.04.52.06,1.06.06,1.61,0,5.4-2.13,9.77-4.76,9.77-.49,0-.96-.15-1.41-.44-1.6,4.01-2.46,8.28-2.46,12.71,0,1.56.11,3.1.32,4.62.37,2.7,1.06,5.32,2.05,7.85,7.89-8.24,12.89-20.45,12.89-34.08,0-2.55-.17-5.04-.51-7.47-.25-1.79-.58-3.54-.99-5.25-.26-1.08-.56-2.14-.88-3.18-3.52-1.72-6.8-3.74-9.76-6.01-2.25-1.73-4.32-3.6-6.19-5.6-1.98-2.13-3.74-4.4-5.24-6.79-.22-.34-.43-.69-.63-1.04-.61-1.04-1.18-2.11-1.69-3.19-.09-.18-.17-.37-.26-.55-.04-.05-.08-.09-.12-.13-.02-.02-.04-.03-.06-.04-1.58-.81-3.26-1.32-5-1.65-1.81-.34-3.65-.48-5.49-.48s-3.68.15-5.49.48c-1.74.32-3.42.83-5,1.65-.02.01-.04.02-.06.04-.05.03-.09.08-.12.13-.08.19-.17.37-.26.55-.51,1.09-1.08,2.15-1.69,3.19-.2.35-.41.69-.63,1.04-1.5,2.39-3.25,4.66-5.24,6.79-1.87,2-3.94,3.88-6.19,5.6-2.96,2.28-6.23,4.3-9.76,6.01-.32,1.04-.62,2.1-.88,3.18-.42,1.71-.75,3.46-.99,5.25-.34,2.43-.51,4.93-.51,7.47,0,13.63,5,25.84,12.89,34.08.98-2.52,1.68-5.14,2.05-7.85.21-1.52.32-3.06.32-4.62,0-4.43-.86-8.7-2.46-12.71-.45.28-.92.44-1.41.44-2.63,0-4.76-4.37-4.76-9.77,0-.55.02-1.09.06-1.61.08-1.92.27-3.82.58-5.69.21.21.42.43.63.65,3.16,3.29,5.79,6.94,7.78,10.86,2.79,5.49,4.33,11.52,4.33,17.84,0,2.63-.27,5.21-.78,7.72-.09.46-.19.92-.3,1.37-.56,2.33-1.34,4.6-2.31,6.79-.25.57-.51,1.12-.79,1.68-.38.94-.77,1.88-1.17,2.82-.61,1.43-1.26,2.85-1.94,4.26.15.15.31.3.46.46,4.65,4.7,11.26,8.95,13.24,27.52.16,1.49.29,3.07.38,4.74.13,2.26.2,4.71.2,7.35,0,.28,0,1.36,0,3.07,0,1.28,0,2.9-.01,4.8,0,1.16,0,2.43,0,3.78,3.07-.44,6.39-.68,9.86-.68s6.79.24,9.86.68c0-1.35,0-2.62,0-3.78,0-1.9,0-3.52-.01-4.8,0-1.71,0-2.79,0-3.07,0-2.64.07-5.09.2-7.35.09-1.68.22-3.26.38-4.75,1.98-18.57,8.59-22.82,13.24-27.52Z"/>
      </g>
    </g>
  </g>
</svg>