<svg width="117" height="37" viewBox="0 0 117 37" fill="none" xmlns="http://www.w3.org/2000/svg">
<path d="M96.9809 23.4253L101.433 7.61615L105.215 7.63476L104.166 11.3603C104.941 9.99937 105.757 8.98579 106.623 8.31089C107.49 7.636 108.404 7.29731 109.365 7.30227C109.522 7.30227 109.682 7.30972 109.838 7.32584C109.995 7.34321 110.149 7.37051 110.305 7.40276L108.487 12.4682C108.281 12.3541 108.064 12.2734 107.85 12.2188C107.629 12.1692 107.414 12.1419 107.195 12.1407C106.224 12.1357 105.358 12.5488 104.594 13.3739C103.835 14.1989 103.239 15.3737 102.809 16.8972L100.966 23.4439L96.9809 23.4241V23.4253ZM97.4942 16.6193L88.8546 16.5746C88.5187 17.7942 88.4799 18.7358 88.736 19.3995C88.9945 20.0645 89.5277 20.3995 90.337 20.4032C90.9477 20.4069 91.5034 20.2494 92.0105 19.9355C92.515 19.6166 92.9658 19.1477 93.3617 18.5237L95.9006 20.2283C95.1975 21.4391 94.2971 22.372 93.1981 23.0246C92.0954 23.6772 90.8815 24.0035 89.5527 23.996C87.572 23.9861 86.197 23.2132 85.434 21.6785C84.6684 20.1389 84.636 18.1205 85.3428 15.6132C86.0372 13.1493 87.2124 11.1048 88.8659 9.4808C90.5231 7.85683 92.264 7.05167 94.0923 7.06159C95.9743 7.07152 97.2282 7.90149 97.8488 9.55896C98.4708 11.2164 98.3784 13.4793 97.5704 16.3501L97.4954 16.6168L97.4942 16.6193ZM94.4395 13.457C94.6156 12.5588 94.5731 11.8355 94.3121 11.2884C94.0473 10.7413 93.614 10.4658 93.0033 10.4634C92.3502 10.4596 91.7594 10.7028 91.2312 11.1978C90.7079 11.6928 90.2396 12.4397 89.8287 13.4334L94.4395 13.457ZM72.893 21.9862L74.9274 17.7247C75.3145 18.4381 75.8028 18.9876 76.3961 19.376C76.9918 19.7593 77.6437 19.9553 78.3543 19.959C78.8575 19.9615 79.2734 19.8511 79.5969 19.6278C79.9253 19.4045 80.1476 19.0795 80.2675 18.6514C80.4648 17.9517 80.0827 17.4245 79.121 17.0721C78.8076 16.958 78.5553 16.855 78.3705 16.7744C77.2977 16.3092 76.6009 15.7 76.2662 14.9494C75.934 14.2038 75.9352 13.2299 76.2699 12.0427C76.7033 10.5031 77.4626 9.28106 78.5503 8.36672C79.6381 7.45115 80.8894 6.99832 82.3056 7.00452C83.035 7.00825 83.7431 7.12983 84.4299 7.36802C85.1155 7.60746 85.7862 7.97469 86.4343 8.46969L84.5173 12.3131C84.129 11.8082 83.6956 11.4211 83.221 11.1556C82.7452 10.8914 82.2369 10.7599 81.6874 10.7574C81.2304 10.7549 80.8557 10.8542 80.566 11.0514C80.2762 11.2487 80.0789 11.5353 79.974 11.9099C79.8154 12.4707 80.2076 12.9496 81.1504 13.3453C81.3665 13.4371 81.5276 13.5078 81.635 13.5513C82.8664 14.1083 83.6469 14.7658 83.9828 15.5114C84.3138 16.262 84.3013 17.2744 83.9441 18.546C83.4895 20.16 82.6753 21.4676 81.5001 22.4564C80.3274 23.4514 79.0049 23.9427 77.5388 23.9352C76.5409 23.9303 75.6605 23.7653 74.8924 23.4452C74.1269 23.1201 73.4588 22.6351 72.893 21.985M62.6687 21.9329L64.703 17.6726C65.0902 18.3859 65.5785 18.9343 66.1717 19.3239C66.7674 19.7072 67.4193 19.9032 68.1299 19.9069C68.6332 19.9094 69.0478 19.799 69.3725 19.5757C69.701 19.3524 69.9232 19.0273 70.0431 18.5993C70.2405 17.8996 69.8583 17.3724 68.8954 17.02C68.582 16.9059 68.3297 16.8029 68.1449 16.7223C67.0721 16.257 66.3753 15.6479 66.0406 14.8973C65.7084 14.1517 65.7096 13.1778 66.0443 11.9906C66.4777 10.451 67.237 9.23019 68.3247 8.31462C69.4125 7.39904 70.6638 6.94497 72.08 6.95242C72.8093 6.95614 73.5174 7.07772 74.2043 7.31592C74.8912 7.55536 75.5606 7.92258 76.2087 8.41759L74.2917 12.2623C73.9034 11.7573 73.47 11.369 72.9954 11.1048C72.5196 10.8405 72.0113 10.709 71.4618 10.7065C71.0048 10.704 70.6314 10.8045 70.3404 11.0006C70.0506 11.1966 69.8533 11.4844 69.7484 11.8591C69.5898 12.4198 69.9832 12.8987 70.9248 13.2945C71.1409 13.3863 71.302 13.457 71.4094 13.5004C72.6408 14.0574 73.4213 14.715 73.756 15.4606C74.0869 16.2111 74.0744 17.2235 73.716 18.4951C73.2614 20.1092 72.4472 21.4168 71.2733 22.4068C70.1006 23.4018 68.7781 23.893 67.3119 23.8856C66.3141 23.8806 65.4336 23.7156 64.6656 23.3956C63.9 23.0705 63.2332 22.5854 62.6662 21.9354M63.8925 16.4506L55.253 16.4059C54.917 17.6242 54.8796 18.5671 55.1343 19.232C55.3929 19.897 55.9261 20.2307 56.7354 20.2357C57.3461 20.2394 57.9018 20.0806 58.4088 19.768C58.9134 19.4492 59.3655 18.9802 59.7601 18.3562L62.299 20.0608C61.5972 21.2716 60.6955 22.2046 59.5965 22.8571C58.4938 23.5097 57.2799 23.836 55.9511 23.8285C53.9704 23.8186 52.5954 23.0457 51.8324 21.5111C51.0668 19.9715 51.0356 17.953 51.7412 15.4457C52.4356 12.9818 53.6107 10.9373 55.2642 9.31331C56.9214 7.68934 58.6623 6.88418 60.4907 6.89411C62.3714 6.90403 63.6265 7.73401 64.2472 9.39147C64.8691 11.0489 64.7767 13.3118 63.9687 16.1826L63.8938 16.4493L63.8925 16.4506ZM60.8378 13.2882C61.0139 12.39 60.9715 11.6668 60.7105 11.1197C60.4457 10.5725 60.0111 10.2971 59.4017 10.2934C58.7485 10.2909 58.1578 10.5328 57.6295 11.0291C57.105 11.5241 56.638 12.2709 56.2271 13.2647L60.8391 13.2882H60.8378ZM47.5551 0.209664L46.5535 11.1234C46.5123 11.6097 46.4598 12.1233 46.3911 12.6593C46.3262 13.189 46.2375 13.8043 46.1364 14.4941C46.4773 13.6766 46.762 13.0091 46.9881 12.4806C47.2179 11.9521 47.4214 11.503 47.5988 11.1296L52.6042 0.235717L57.1387 0.259289L46.024 23.1648L41.8615 23.1437L42.5846 13.3416C42.6034 12.9992 42.6708 12.3255 42.7807 11.3194C42.8344 10.8703 42.8706 10.5217 42.8956 10.2711C42.7994 10.4894 42.6583 10.7996 42.4772 11.1953C42.0189 12.2102 41.6879 12.9198 41.4819 13.3366L36.72 23.1177L32.5463 23.0966L34.3547 0.142671L38.893 0.166243L37.6954 11.1383C37.6279 11.7052 37.558 12.2672 37.4831 12.8342C37.4131 13.3962 37.3295 13.9793 37.2358 14.5723C37.4281 14.1344 37.6304 13.6753 37.8427 13.1952C38.0588 12.7138 38.371 12.0303 38.7781 11.1445L43.9346 0.191055L47.5551 0.209664ZM30.1386 16.2744L21.5002 16.231C21.1643 17.4493 21.1268 18.3909 21.3816 19.0559C21.6401 19.7208 22.1734 20.0558 22.9826 20.0595C23.5933 20.0633 24.1491 19.9045 24.6561 19.5918C25.1606 19.273 25.6127 18.804 26.0074 18.18L28.545 19.8846C27.8419 21.0967 26.9415 22.0284 25.8425 22.681C24.7398 23.3335 23.5246 23.6598 22.1971 23.6524C20.2164 23.6424 18.8414 22.8695 18.0784 21.3349C17.3128 19.7953 17.2816 17.7768 17.9872 15.2695C18.6816 12.8056 19.8568 10.7611 21.5102 9.13715C23.1675 7.51318 24.9084 6.70802 26.7367 6.71794C28.6187 6.72787 29.8726 7.55784 30.4932 9.2153C31.1152 10.8728 31.0227 13.1357 30.2147 16.0064L30.1398 16.2732L30.1386 16.2744ZM27.0839 13.1121C27.26 12.2139 27.2175 11.4906 26.9565 10.9435C26.6917 10.3964 26.2571 10.121 25.6477 10.1185C24.9945 10.1148 24.4038 10.3579 23.8756 10.8529C23.351 11.3479 22.884 12.0948 22.4731 13.0885L27.0839 13.1121ZM5.89084 17.8215L6.6439 17.8252C8.40603 17.8339 9.83846 17.3389 10.9325 16.3327C12.0252 15.3315 12.8782 13.7361 13.4976 11.539C14.1145 9.34805 14.1632 7.74269 13.6425 6.71174C13.1204 5.68699 11.974 5.16717 10.2119 5.15849L9.45881 5.15476L5.89084 17.8215ZM0 22.9291L6.45657 0L9.88966 0.0173686C12.4473 0.0297748 14.2082 0.205942 15.1736 0.547112C16.1439 0.883319 16.9145 1.45028 17.4977 2.23435C18.2557 3.25538 18.6816 4.55803 18.7752 6.13733C18.8714 7.72284 18.6316 9.53042 18.0609 11.5563C17.4902 13.5823 16.7146 15.3812 15.728 16.9617C14.7452 18.541 13.5888 19.8362 12.2575 20.8461C11.2459 21.6115 10.1844 22.1574 9.07042 22.4837C7.96143 22.8038 6.33293 22.9626 4.1899 22.9514L3.4331 22.9477L0 22.9303L0 22.9291Z" fill="white"/>
<path d="M0.869051 26.3919L0.017334 31.7427C27.4871 40.2173 62.6198 36.8453 100.712 18.9668C61.8418 32.6049 27.8855 37.9061 0.869051 26.3919Z" fill="white"/>
<path d="M113.446 4.31855L113.966 4.32103C114.304 4.32227 114.515 4.30986 114.598 4.28381C114.682 4.25776 114.748 4.21061 114.796 4.1461C114.844 4.08035 114.868 3.99723 114.868 3.89922C114.868 3.78756 114.838 3.69948 114.776 3.63C114.713 3.56177 114.626 3.51835 114.512 3.49974C114.455 3.49105 114.284 3.48733 113.999 3.48609L113.449 3.48361L113.444 4.31979L113.446 4.31855ZM112.729 6.21421L112.749 2.92285L114.231 2.9303C114.603 2.93278 114.874 2.96379 115.042 3.02334C115.212 3.08289 115.345 3.18834 115.445 3.3397C115.545 3.49229 115.595 3.66474 115.594 3.85952C115.592 4.1064 115.515 4.30986 115.36 4.47114C115.207 4.63118 114.977 4.73167 114.671 4.77137C114.822 4.85573 114.947 4.94878 115.044 5.04927C115.143 5.14976 115.274 5.32965 115.44 5.58646L115.861 6.23034L115.02 6.22537L114.52 5.50458C114.34 5.24901 114.217 5.08649 114.15 5.01949C114.084 4.95374 114.014 4.9066 113.939 4.88179C113.864 4.85697 113.745 4.84333 113.583 4.84333H113.441L113.432 6.21793L112.726 6.21421H112.729Z" fill="white"/>
<path d="M115.846 2.87205C115.392 2.42047 114.758 2.13885 114.059 2.13513C113.358 2.1314 112.723 2.40682 112.263 2.85344C111.802 3.30131 111.514 3.92161 111.51 4.60892C111.505 5.29498 111.786 5.91777 112.242 6.37059C112.698 6.82342 113.33 7.10504 114.029 7.10752C114.73 7.11124 115.365 6.83582 115.826 6.3892C116.287 5.94134 116.575 5.32103 116.579 4.63373C116.583 3.94767 116.303 3.32364 115.847 2.87205H115.846ZM114.062 1.72076C114.877 1.72448 115.614 2.05325 116.146 2.58175C116.678 3.10901 117.004 3.83601 116.999 4.63745C116.994 5.43765 116.658 6.16217 116.12 6.68323C115.581 7.20553 114.84 7.52685 114.024 7.52189C113.209 7.51816 112.472 7.1894 111.939 6.6609C111.406 6.13363 111.079 5.40663 111.086 4.60644C111.091 3.80624 111.426 3.08172 111.963 2.55942C112.502 2.03712 113.244 1.7158 114.059 1.72076" fill="white"/>
</svg>
