<svg width="148" height="50" viewBox="0 0 148 50" fill="none" xmlns="http://www.w3.org/2000/svg">
<g clip-path="url(#clip0_1096_9557)">
<path d="M148 0H0V50H148V0Z" fill="#E60011"/>
<path d="M104.715 22.3108H98.0944L96.1408 27.8508H102.771L104.725 22.3108H104.715ZM93.3288 35.3808L89.7275 44.6408L83.8667 44.6908L82.4557 39.1508L92.0165 29.6608H84.0837L76.4765 37.0108L81.5776 22.3008H74.9571L66.5901 44.5708H61.1635L66.3731 29.6508H51.7112C47.9027 29.6508 46.2845 33.8108 46.2845 33.8108L42.0517 44.4708H36.6251L41.9432 29.6608H30.3203L31.6227 25.9308H20.1083L21.3021 22.3108H0V28.4908H12.1656L4.13413 50.0008H11.0803L17.9179 31.9008H22.4763L16.0728 50.0008H23.0189L28.4456 35.3108H33.4381L27.7944 50.0008H37.1579C37.3848 49.8408 39.1509 48.5708 41.8544 46.5608C41.8544 46.5608 42.4957 49.1808 44.5776 50.0008H49.4912C49.5997 49.8708 50.2904 49.2208 53.6352 46.4508C53.6352 46.4508 53.8029 48.9208 56.092 50.0008H62.0219C62.16 49.8408 63.0776 48.8208 65.9093 46.4808L64.5576 50.0008H71.5629L75.4701 39.6808L78.6176 50.0008H85.8104L89.3723 46.5008C89.9248 49.4008 91.9672 49.9108 92.5691 50.0008H100.472L104.143 46.6108C104.449 48.8708 106.866 49.8608 107.241 50.0008H115.134L118.696 46.5008C119.13 49.4808 122.169 50.0008 122.169 50.0008H126.945L130.309 46.5008C130.852 49.4808 134.108 50.0008 134.108 50.0008H147.961V44.4808H137.581L142.899 29.6708H128.563C124.113 29.7808 122.593 34.7908 122.593 34.7908L119.012 44.4908H111.405L114.986 34.3708H119.327L120.955 29.3608H116.94L119.545 22.3208H112.707L109.777 29.5708H105.544L103.807 34.4708H108.257L104.458 44.5908H96.8512L102.169 29.5708H95.5389L93.2795 35.3908M53.8325 44.7008H49.1656L52.8557 35.3208H57.5227L53.8325 44.7008ZM130.299 44.7008H125.632L129.322 35.3208H133.989L130.299 44.7008Z" fill="white"/>
</g>
<defs>
<clipPath id="clip0_1096_9557">
<rect width="148" height="50" fill="white"/>
</clipPath>
</defs>
</svg>
