<?xml version="1.0" encoding="UTF-8"?>
<svg xmlns="http://www.w3.org/2000/svg" xmlns:xlink="http://www.w3.org/1999/xlink" width="450px" height="67px" viewBox="0 0 450 67" version="1.1">
<g id="surface1">
<path style=" stroke:none;fill-rule:nonzero;fill:rgb(100%,100%,100%);fill-opacity:1;" d="M 284.234375 25.050781 L 330.839844 25.050781 L 330.839844 18.738281 L 290.40625 18.738281 C 286.992188 18.738281 284.234375 21.570312 284.234375 25.050781 Z M 284.234375 25.050781 "/>
<path style=" stroke:none;fill-rule:nonzero;fill:rgb(100%,100%,100%);fill-opacity:1;" d="M 284.234375 48.480469 L 330.839844 48.480469 L 330.839844 42.171875 L 290.417969 42.171875 L 290.417969 36.761719 L 330.839844 36.761719 L 330.839844 30.449219 L 284.234375 30.449219 Z M 284.234375 48.480469 "/>
<path style=" stroke:none;fill-rule:evenodd;fill:rgb(100%,100%,100%);fill-opacity:1;" d="M 441.859375 18.730469 L 408.03125 18.730469 C 403.542969 18.730469 399.894531 22.460938 399.894531 27.050781 L 399.894531 40.148438 C 399.894531 44.738281 403.542969 48.46875 408.03125 48.46875 L 441.859375 48.46875 C 446.351562 48.46875 450 44.738281 450 40.148438 L 450 27.050781 C 450 22.460938 446.351562 18.730469 441.859375 18.730469 Z M 441.859375 42.171875 L 408.03125 42.171875 C 406.945312 42.171875 406.066406 41.269531 406.066406 40.160156 L 406.066406 27.058594 C 406.066406 25.949219 406.945312 25.050781 408.03125 25.050781 L 441.859375 25.050781 C 442.945312 25.050781 443.828125 25.949219 443.828125 27.058594 L 443.828125 40.160156 C 443.828125 41.269531 442.945312 42.171875 441.859375 42.171875 Z M 441.859375 42.171875 "/>
<path style=" stroke:none;fill-rule:evenodd;fill:rgb(100%,100%,100%);fill-opacity:1;" d="M 185.839844 18.730469 L 179.101562 18.730469 L 149.332031 48.480469 L 158.164062 48.480469 L 182.476562 24.191406 L 206.773438 48.480469 L 215.609375 48.480469 Z M 185.839844 18.730469 "/>
<path style=" stroke:none;fill-rule:evenodd;fill:rgb(100%,100%,100%);fill-opacity:1;" d="M 265.824219 18.730469 L 241.511719 43.03125 L 217.214844 18.730469 L 208.378906 18.730469 L 238.148438 48.480469 L 244.886719 48.480469 L 274.65625 18.730469 Z M 265.824219 18.730469 "/>
<path style=" stroke:none;fill-rule:nonzero;fill:rgb(100%,100%,100%);fill-opacity:1;" d="M 139.910156 18.730469 L 103.8125 18.730469 C 100.566406 18.730469 97.582031 20.558594 96.035156 23.5 L 95.222656 25.039062 L 139.902344 25.039062 L 139.902344 18.730469 Z M 139.910156 18.730469 "/>
<path style=" stroke:none;fill-rule:nonzero;fill:rgb(100%,100%,100%);fill-opacity:1;" d="M 140.554688 35.230469 C 139.011719 32.289062 136.027344 30.460938 132.78125 30.460938 L 95.234375 30.460938 L 96.046875 32 C 97.589844 34.941406 100.574219 36.769531 103.824219 36.769531 L 132.789062 36.769531 C 134.226562 36.769531 135.429688 38.011719 135.429688 39.46875 C 135.429688 40.929688 134.21875 42.171875 132.789062 42.171875 L 96.691406 42.171875 L 96.691406 48.480469 L 132.789062 48.480469 C 137.652344 48.480469 141.613281 44.441406 141.613281 39.460938 C 141.613281 37.980469 141.25 36.519531 140.566406 35.21875 Z M 140.554688 35.230469 "/>
<path style=" stroke:none;fill-rule:evenodd;fill:rgb(100%,100%,100%);fill-opacity:1;" d="M 342.03125 18.730469 L 342.03125 25.050781 L 362.238281 25.050781 L 362.238281 48.480469 L 368.421875 48.480469 L 368.421875 25.050781 L 388.632812 25.050781 L 388.632812 18.730469 Z M 342.03125 18.730469 "/>
<path style=" stroke:none;fill-rule:nonzero;fill:rgb(100%,100%,100%);fill-opacity:1;" d="M 45.089844 44.980469 C 43.628906 44.980469 42.261719 45.558594 41.222656 46.621094 L 31.207031 56.859375 L 26.921875 52.480469 L 40.804688 38.289062 L 40.078125 37.550781 C 39.050781 36.5 37.671875 35.910156 36.214844 35.910156 C 34.757812 35.910156 33.386719 36.488281 32.351562 37.550781 L 22.332031 47.789062 L 18.050781 43.410156 L 31.921875 29.21875 L 31.195312 28.480469 C 30.167969 27.429688 28.789062 26.839844 27.332031 26.839844 C 25.875 26.839844 24.503906 27.421875 23.46875 28.480469 L 13.449219 38.71875 L 9.167969 34.339844 L 41.988281 0.78125 L 32.8125 0.78125 L 0 34.320312 L 31.207031 66.21875 L 49.667969 47.351562 L 48.941406 46.609375 C 47.914062 45.558594 46.535156 44.96875 45.078125 44.96875 L 45.089844 44.96875 Z M 45.089844 44.980469 "/>
<path style=" stroke:none;fill-rule:nonzero;fill:rgb(100%,100%,100%);fill-opacity:1;" d="M 33.417969 26.199219 L 34.140625 26.941406 L 59.734375 0.78125 L 50.566406 0.78125 L 33.417969 18.308594 C 31.285156 20.488281 31.285156 24.03125 33.417969 26.210938 Z M 33.417969 26.199219 "/>
<path style=" stroke:none;fill-rule:nonzero;fill:rgb(100%,100%,100%);fill-opacity:1;" d="M 42.289062 35.269531 L 43.015625 36.011719 L 77.488281 0.78125 L 68.320312 0.78125 L 42.300781 27.378906 C 40.167969 29.558594 40.167969 33.101562 42.300781 35.28125 Z M 42.289062 35.269531 "/>
<path style=" stroke:none;fill-rule:nonzero;fill:rgb(100%,100%,100%);fill-opacity:1;" d="M 86.066406 0.78125 L 51.171875 36.449219 C 49.039062 38.628906 49.039062 42.171875 51.171875 44.351562 L 51.898438 45.089844 L 95.234375 0.78125 C 95.234375 0.78125 86.066406 0.78125 86.066406 0.78125 Z M 86.066406 0.78125 "/>
</g>
</svg>
