<svg id="Group_386" data-name="Group 386" xmlns="http://www.w3.org/2000/svg" xmlns:xlink="http://www.w3.org/1999/xlink" width="331.547" height="106" viewBox="0 0 331.547 106">
  <defs>
    <clipPath id="clip-path">
      <rect id="Rectangle_96" data-name="Rectangle 96" width="331.547" height="106"/>
    </clipPath>
  </defs>
  <g id="Group_128" data-name="Group 128" clip-path="url(#clip-path)">
    <path id="Path_45" data-name="Path 45" d="M18.618,36.922C12.37,33.288,6.568,29.945.82,26.511A2.245,2.245,0,0,1,0,24.721C.938,14.914,5.478,7.405,14.472,3.044,23.046-1.114,31.579-1.31,39.687,4.323c10.8,7.5,14.754,20.8,9.688,32.249-.362.818-.813,1.6-1.294,2.532l-3.922-2.237c2.886-7.081,2.005-13.36-4.238-18.051-4.725-3.55-10.16-4.051-15.167-.871-6.78,4.305-8.014,10.953-6.135,18.977" transform="translate(0 0)"/>
    <path id="Path_46" data-name="Path 46" d="M70.533,43.547,74.569,41.2c4.519,5.748,10.173,8.3,17.26,5.542,5.3-2.065,8.583-6.132,8.749-11.9.25-8.745-5.223-13.23-13.233-15.853,6.128-3.539,11.9-6.914,17.741-10.174a2.6,2.6,0,0,1,2.167.312c9.368,6.023,13.52,17.383,10.6,28.817C115.2,48.363,106.6,55.192,95.211,56.085c-10.641.834-18.57-3.559-24.678-12.537" transform="translate(-35.39 -4.359)"/>
    <path id="Path_47" data-name="Path 47" d="M70.012,83.024c0,7.249.029,13.952-.056,20.653-.007.532-.7,1.261-1.253,1.55-15.668,8.141-36.016-2.741-37.356-20.365C30.323,71.389,39.58,57.448,55.519,56.472a11.016,11.016,0,0,1,1.566.14V60.82C48.7,62.767,44.726,66.52,43.6,73.482c-.8,4.958,2.166,11.216,6.9,13.633,7.174,3.66,13.433,1.5,19.5-4.091" transform="translate(-15.69 -28.332)"/>
    <path id="Path_48" data-name="Path 48" d="M402.216,79.856V39.743c.284-.153.494-.367.7-.366,7.883.033,15.772-.063,23.648.192,4.5.145,7.61,3,8.73,7.218a9.956,9.956,0,0,1-4,11.173c-.447.313-.9.617-1.647,1.127,5.43,2.1,7.2,6,6.45,11.2-.844,5.838-4.364,9.071-11.53,9.475-7.351.415-14.742.092-22.353.092m6.493-5.457c5.422,0,10.557.22,15.662-.082,3.084-.182,4.942-2.868,5.04-6.139.095-3.163-1.368-5.861-4.038-6.012-5.5-.309-11.025-.093-16.665-.093Zm.012-17.951c5.109,0,10.062.188,14.992-.066,3.3-.17,5.156-2.579,5.189-5.843.032-3.214-1.605-5.708-4.5-5.847-5.172-.249-10.364-.07-15.68-.07Z" transform="translate(-201.811 -19.757)"/>
    <path id="Path_49" data-name="Path 49" d="M522.3,61.257c6.169,2.518,7.21,7.39,7.342,12.809.046,1.877.425,3.746.653,5.619-6.511.637-6.518.638-7.165-5.835-.459-4.588-1.556-9.075-6.7-10.2-4.294-.944-8.811-.87-13.551-1.276V79.707h-6.367V39.215c2.912,0,5.714-.022,8.516,0,4.812.046,9.631-.02,14.434.222,6.287.317,10.138,3.622,11.046,9.117.969,5.867-1.649,10.109-8.209,12.7M503,57.034c5.6,0,11,.276,16.346-.106,3.107-.222,4.382-2.734,4.27-6.527-.1-3.38-1.544-5.541-4.654-5.705C513.7,44.418,508.41,44.62,503,44.62Z" transform="translate(-249.124 -19.672)"/>
    <path id="Path_50" data-name="Path 50" d="M337.294,58.852c-.208,2.056-.307,4.13-.644,6.164-1.432,8.65-7.488,14.189-16.251,14.655a42.814,42.814,0,0,1-8.885-.48c-6.4-1.01-10.568-4.733-12.408-11.017a30.628,30.628,0,0,1-.609-15.934c2.166-9.1,8.07-13.861,17.807-14.26a32.044,32.044,0,0,1,7.411.569c8.271,1.62,12.877,7.595,13.362,17.051.055,1.076.008,2.156.008,3.235l.21.017m-6.767.44-.353-.049c0-1.163.059-2.329-.009-3.488-.411-6.945-3.158-11.086-8.589-12.1a24.658,24.658,0,0,0-8.13.04,8.594,8.594,0,0,0-7.615,7.236,52.47,52.47,0,0,0-.591,13.288c.644,6.689,3.967,9.644,10.6,10.364a20.392,20.392,0,0,0,5.426-.349c4.023-.661,6.888-2.9,7.932-6.909.682-2.617.9-5.353,1.331-8.036" transform="translate(-149.379 -19.043)"/>
    <path id="Path_51" data-name="Path 51" d="M623.981,79.578a4.73,4.73,0,0,1-.723.194c-5.877.285-5.877.285-8.016-5.217C613.2,69.3,613.2,69.3,607.472,69.3c-3.9,0-7.8.073-11.69-.036a2.371,2.371,0,0,0-2.7,1.861c-.789,2.26-1.934,4.4-2.659,6.677a2.514,2.514,0,0,1-3.085,2.023c-1.393-.135-2.808-.028-4.506-.028.274-.853.443-1.531.706-2.169,5-12.073,10.033-24.128,14.97-36.225.652-1.6,1.388-2.3,3.217-2.279,6.281.062,6.268-.011,8.631,5.925q6.375,16.015,12.775,32.02c.3.758.528,1.547.852,2.508m-13-15.744L603.619,44.1c-1.448,3.732-2.672,6.889-3.9,10.044s-2.466,6.331-3.776,9.692Z" transform="translate(-292.434 -19.631)"/>
    <path id="Path_52" data-name="Path 52" d="M248.4,39.815v4.844c-3.109,0-6.145-.049-9.179.014-2.812.059-5.632.128-8.429.4a7.172,7.172,0,0,0-6.068,4.551,24.264,24.264,0,0,0-.71,18.623c1.43,3.894,4.158,6.365,8.548,6.4,5.2.039,10.409.009,15.777.009v5.74c-6.934-.327-13.807-.294-20.582-1.091-4.847-.57-8.12-4.01-9.96-8.5a27.446,27.446,0,0,1,.59-22.887c2.2-4.7,5.963-7.717,11.146-8.018,6.184-.358,12.405-.084,18.868-.084" transform="translate(-108.168 -19.927)"/>
    <path id="Path_53" data-name="Path 53" d="M556.827,183.827c.021-5.863,3.651-9.7,9.066-9.579,5.1.113,8.4,3.814,8.386,9.418-.013,5.936-3.584,9.817-8.937,9.715-5.189-.1-8.535-3.853-8.515-9.553m2.346-.069c-.025,4.083,1.869,6.883,5.1,7.535a6.219,6.219,0,0,0,7.086-3.756c1.529-3.746.416-8.7-2.368-10.4a5.305,5.305,0,0,0-1.591-.635c-4.795-1.057-8.192,1.952-8.226,7.256" transform="translate(-279.387 -87.427)"/>
    <path id="Path_54" data-name="Path 54" d="M452.433,183.9c-.09,5.824-3.6,9.565-8.893,9.474-5.13-.089-8.713-4.062-8.612-9.546.109-5.846,3.794-9.709,9.151-9.593,5.193.113,8.443,3.875,8.354,9.666m-15.1-.169c0,.248-.008.5,0,.744.135,3.832,2.453,6.593,5.79,6.9,3.406.309,6-1.647,6.807-5.14.992-4.283-.6-8.476-3.658-9.6a5.233,5.233,0,0,0-.72-.158c-4.744-1-8.2,2.051-8.22,7.254" transform="translate(-218.223 -87.422)"/>
    <path id="Path_55" data-name="Path 55" d="M332.443,185.623v7.484l-.622.472c-.551-.489-1.571-.969-1.582-1.468-.114-5.615-.072-11.232-.072-17.111a66.686,66.686,0,0,1,7.044.055,4.41,4.41,0,0,1,4.056,3.785,4.825,4.825,0,0,1-2.146,5.155c-.39.277-.806.517-1.167.747l5.242,8.136-.512.72a10.287,10.287,0,0,1-2.642-1.7,29.927,29.927,0,0,1-2.461-4.008,4.4,4.4,0,0,0-5.138-2.265m.153-8.694v6.488c2.257.1,4.616.741,5.887-1.585a4.072,4.072,0,0,0,.03-3.435c-1.341-2.227-3.7-1.484-5.917-1.468" transform="translate(-165.657 -87.77)"/>
    <path id="Path_56" data-name="Path 56" d="M273.45,184.747h-9.5v7.972c-1.43.687-2.153.6-2.142-1.066.033-5.152-.026-10.3.067-15.455.01-.572.765-1.131,1.175-1.7l.737.4v7.609h9.65c0-1.982.047-4.019-.015-6.053-.049-1.594.534-2.135,2.272-1.451,0,5.594.04,11.231-.069,16.864-.01.5-.993.989-1.525,1.482l-.644-.48Z" transform="translate(-131.359 -87.556)"/>
    <path id="Path_57" data-name="Path 57" d="M491.981,193.725a14.62,14.62,0,0,1-2.7-2.087,30.256,30.256,0,0,1-2.336-3.806,4.4,4.4,0,0,0-5.09-2.273v7.5l-.688.481c-.51-.447-1.456-.886-1.464-1.342-.1-5.7-.066-11.4-.066-17.307,2.346,0,4.411-.137,6.45.037,2.223.189,3.989,1.272,4.489,3.633a4.864,4.864,0,0,1-2.329,5.554c-.334.208-.674.409-.934.566l5.273,8.189-.6.856m-10.1-10.271c2.386-.042,4.792.657,6.013-1.739a4.06,4.06,0,0,0-.079-3.449c-1.407-2.141-3.737-1.412-5.935-1.359Z" transform="translate(-240.654 -87.725)"/>
    <path id="Path_58" data-name="Path 58" d="M364.347,174.857c2.742,0,5.227-.076,7.7.056.583.031,1.128.762,1.691,1.171l-.436.741h-6.757v5.647c2.034,1.355,5.026-.97,7.071,2.29H366.6v6.271c2.477.288,4.931.566,7.376.906a8.371,8.371,0,0,1,.007,1.251h-9.634Z" transform="translate(-182.811 -87.723)"/>
    <path id="Path_59" data-name="Path 59" d="M601.688,174.494c.4.572,1.131,1.131,1.152,1.716.117,3.145-.126,6.313.134,9.441.135,1.633.6,3.767,1.727,4.646a6.01,6.01,0,0,0,4.982.676c1.175-.422,2.373-2.382,2.516-3.768.366-3.528.1-7.117.209-10.679.018-.616.634-1.214.974-1.82.393.567,1.114,1.129,1.125,1.7.067,3.644.126,7.3-.1,10.935-.257,4.132-3,6.357-7.172,6.159-3.968-.188-6.226-2.432-6.316-6.49-.088-3.971-.019-7.946-.019-11.919l.79-.6" transform="translate(-301.487 -87.552)"/>
    <path id="Path_60" data-name="Path 60" d="M310.677,176.822H303.95v5.8c6.156.995,6.156.995,6.208,2.134h-6.126v6.289c2.358.288,4.8.58,7.231.934a7.919,7.919,0,0,1,.007,1.231H301.83V174.878c2.71,0,5.342-.061,7.966.06.439.02.842.832,1.261,1.279l-.38.6" transform="translate(-151.443 -87.737)"/>
    <path id="Path_61" data-name="Path 61" d="M526.674,174.109c.8.635,1.881,1.111,2.36,1.936,1.364,2.348,2.484,4.839,3.74,7.355,2.731-2.691,2.736-7.362,6.727-8.942-1.882,6.1-7.154,11-5.241,18.2l-.692.436c-.589-.426-1.732-.933-1.684-1.267.895-6.154-2.895-10.7-5.239-15.742-.14-.3-.29-.6-.4-.91a1.789,1.789,0,0,1-.036-.483l.466-.587" transform="translate(-264.024 -87.359)"/>
    <path id="Path_62" data-name="Path 62" d="M409.892,193.212V174.886c2.737,0,5.432-.039,8.124.045.375.011.73.627,1.094.964-.384.307-.756.861-1.154.88-1.9.094-3.8.042-5.9.042V183.2h6.074c.19,1.585.19,1.585-6.075,2.269-.178,2.568-.351,5.158-.6,7.742a15.5,15.5,0,0,1-1.563.005" transform="translate(-205.663 -87.744)"/>
  </g>
</svg>
