<svg id="Layer_1" data-name="Layer 1" xmlns="http://www.w3.org/2000/svg" viewBox="0 0 522.4 77.3"><defs><style>.cls-1{fill:#fff;}.cls-2{fill:#022e34;}.cls-3{fill:#1a5961;}</style></defs><title>sabitlogo</title><path class="cls-1" d="M371.7,417.7,356.6,409l16.1-17.7-2.2-4.3H332.7v10.6l22,.2-12,13.3-8,8.8,6.6,5.9,9.3-6.6a1.53,1.53,0,0,1,1.6,0l1,.6,8.3,4.8a1.6,1.6,0,0,1,.8,1.4v10.7a1.6,1.6,0,0,1-.8,1.4l-8.3,4.8-1,.6a1.53,1.53,0,0,1-1.6,0l-15-7.5-4.6,8.9h0l18.8,10.8a5.64,5.64,0,0,0,1.2.4h.8a5.64,5.64,0,0,0,1.2-.4l2-1.2,16.8-9.7a3,3,0,0,0,.7-.5,4.17,4.17,0,0,0,.9-1.6c0-.2.1-.4.1-.6V420.2a4.21,4.21,0,0,0-1.8-2.5" transform="translate(-36.6 -382.7)"/><path class="cls-1" d="M412.5,406.4a1.61,1.61,0,0,0-.3-.9,1,1,0,0,0-.5-.4h0l-9.3-5.4a1.88,1.88,0,0,0-.8-.2,2.35,2.35,0,0,0-.8.2L379.7,412V400.8a3,3,0,0,1,1.6-2.5l16.8-9.7,2-1.2a3.4,3.4,0,0,1,3.2,0l2,1.2,16.8,9.7a3.29,3.29,0,0,1,1.6,2.5v41.4a1.27,1.27,0,0,1-.1.6,3,3,0,0,1-.8,1.6,1.79,1.79,0,0,1-.7.5l-16.8,9.7-2,1.1a2.84,2.84,0,0,1-1.2.4h-.8a2.84,2.84,0,0,1-1.2-.4l-2-1.1-16.8-9.7a1.79,1.79,0,0,1-.7-.5,4.17,4.17,0,0,1-.9-1.6c0-.2-.1-.4-.1-.6V431.7l20.2,11.2.9.5h.1a1.88,1.88,0,0,0,.8.2,2.35,2.35,0,0,0,.8-.2h.1l.9-.5,8.3-4.8a1.6,1.6,0,0,0,.8-1.4V406.4Z" transform="translate(-36.6 -382.7)"/><path class="cls-2" d="M386.5,417.7v16.5a1.94,1.94,0,0,0,1,1.7l.5.3.5.3.2.1,1.5.9a2.55,2.55,0,0,0,2.4,0l5-2.9,2.7-1.6,6.1-3.5,8.3-4.8,2-1.1,1.7-1,3.9-2.3c.1-.1.3-.2.4-.3a2.42,2.42,0,0,0,0-3.5c-.1-.1-.3-.2-.4-.3l-4.7-2.7-.8-.4-2.3-1.3-8.2-4.7-.6-.3a2.55,2.55,0,0,0-2.4,0l-2.3,1.3-.9.5-2.7,1.6-3.3,1.9-5.6,3.2-.2.1-1,.6a2.49,2.49,0,0,0-.8,1.7" transform="translate(-36.6 -382.7)"/><path class="cls-3" d="M379.7,417.7v16.5a1.94,1.94,0,0,0,1,1.7l2.8,1.6a2.55,2.55,0,0,0,2.4,0l2.2-1.3h0l.7-.4,11.6-6.7,15.1-8.8a2.35,2.35,0,0,0,0-4.1L401.3,408h0l-.9-.5-1.4-.8a2.55,2.55,0,0,0-2.4,0l-5.7,3.3-2.2,1.3-8.2,4.7h0c-.1.1-.2.1-.3.2l-.1.1-.2.2a5,5,0,0,0-.2,1.2" transform="translate(-36.6 -382.7)"/><path class="cls-1" d="M380.7,416l10.3-6,3.4,2h0l7.3,4.2a2.35,2.35,0,0,1,0,4.1l-15.2,8.8h0l-6.9,4V417.7a2.17,2.17,0,0,1,1.1-1.7" transform="translate(-36.6 -382.7)"/><path class="cls-1" d="M447.2,429.4l.2,21.2h4.1l.1,5.5H441.2l-.2-26.7Z" transform="translate(-36.6 -382.7)"/><path class="cls-1" d="M438.1,427.7l.7-2,10.9-.1-.7,2Zm1.1-3,.7-2,10.9-.1-.7,2Z" transform="translate(-36.6 -382.7)"/><path class="cls-1" d="M514.5,436.9a11,11,0,0,1,4,3.7,10.48,10.48,0,0,1,1.5,5.2,10.29,10.29,0,0,1-1.3,5.4,10.13,10.13,0,0,1-3.8,3.6,13.38,13.38,0,0,1-5.8,1.3H451.4l-.1-5.5h48a10.49,10.49,0,0,1-1.1-4.7,10.3,10.3,0,0,1,1.3-5.2,9.66,9.66,0,0,1,3.8-3.7,11.34,11.34,0,0,1,5.6-1.4A10.77,10.77,0,0,1,514.5,436.9Zm-2.7,13.2a4,4,0,0,0,1.7-1.7,6.09,6.09,0,0,0,.6-2.8,5.07,5.07,0,0,0-.7-2.8,4.69,4.69,0,0,0-1.9-1.8,5.83,5.83,0,0,0-2.6-.6,5.54,5.54,0,0,0-2.6.6,3.92,3.92,0,0,0-1.8,1.8,5,5,0,0,0-.6,2.8,7.46,7.46,0,0,0,.4,2.6,6.39,6.39,0,0,0,1,2.2h4.1A3.83,3.83,0,0,0,511.8,450.1Z" transform="translate(-36.6 -382.7)"/><path class="cls-1" d="M529.4,429.4l.2,21.2h4.1l.1,5.5H523.5l-.3-26.7Z" transform="translate(-36.6 -382.7)"/><path class="cls-1" d="M558.9,450.6l.1,5.5H533.5l-.1-5.5h6.2a7.79,7.79,0,0,1-2.7-5.9,8.08,8.08,0,0,1,1.4-4.9,9.1,9.1,0,0,1,3.9-3.3,13.19,13.19,0,0,1,5.7-1.1h0a12.49,12.49,0,0,1,4.2.8,10.68,10.68,0,0,1,3.6,2.1l-3.6,3.9a5.73,5.73,0,0,0-1.9-1,8.33,8.33,0,0,0-2.2-.3,5.17,5.17,0,0,0-3.8,1.3,5,5,0,0,0-1.4,3.7,5.2,5.2,0,0,0,.7,2.5,4.94,4.94,0,0,0,1.9,1.6,5.92,5.92,0,0,0,2.7.5h10.8Z" transform="translate(-36.6 -382.7)"/><path class="cls-1" d="M434.6,387h5l7.1,12.4,6.9-12.4h5L447,408h-.7Zm9.7,14.9h4.9v11h-4.9Z" transform="translate(-36.6 -382.7)"/><path class="cls-1" d="M461.8,387h18.9v4.1h-14v6.7h12.6v4.1H466.7v6.8h14.4v4.1H461.7V387Z" transform="translate(-36.6 -382.7)"/><path class="cls-1" d="M494.4,387h5.1l11.2,25.8h-5.3l-8.6-20.9-8.6,20.9H483Zm-5.5,16.2h15.4v4H488.9Z" transform="translate(-36.6 -382.7)"/><path class="cls-1" d="M524.6,387a12.28,12.28,0,0,1,7.8,2.3c1.9,1.5,2.7,3.7,2.7,6.5a8.67,8.67,0,0,1-2.7,6.8q-2.7,2.4-7.8,2.4h-5.8v7.7h-4.9V387Zm0,14a6.32,6.32,0,0,0,4.3-1.3,4.62,4.62,0,0,0,1.5-3.8,4.33,4.33,0,0,0-1.5-3.6,6.68,6.68,0,0,0-4.3-1.2h-5.8V401Zm-.2,2.3h4.8l6.4,9.6H530Z" transform="translate(-36.6 -382.7)"/><path class="cls-1" d="M556.7,393.4a14.65,14.65,0,0,0-2.8-1.4,13.82,13.82,0,0,0-2.7-.8,9.75,9.75,0,0,0-2.3-.2,4.65,4.65,0,0,0-2.8.7,2.19,2.19,0,0,0-1.1,2,2.56,2.56,0,0,0,.8,1.9,5.61,5.61,0,0,0,2,1.2q1.2.45,2.7.9c1,.3,2,.6,3,1a11.48,11.48,0,0,1,2.7,1.4,7,7,0,0,1,2,2.2,6.71,6.71,0,0,1,.7,3.3,6.29,6.29,0,0,1-1.3,4.1,8.48,8.48,0,0,1-3.5,2.6,13.64,13.64,0,0,1-5.1.9,17.52,17.52,0,0,1-4-.5,12,12,0,0,1-3.7-1.5,17.68,17.68,0,0,1-3.2-2.1l2.1-4a15.35,15.35,0,0,0,2.9,2.1,13.66,13.66,0,0,0,3.1,1.3,10.4,10.4,0,0,0,2.9.5,6.18,6.18,0,0,0,3.3-.8,2.56,2.56,0,0,0,1.2-2.3,2.79,2.79,0,0,0-.8-2,5.61,5.61,0,0,0-2-1.2q-1.2-.45-2.7-.9l-3-.9a11.48,11.48,0,0,1-2.7-1.4,8,8,0,0,1-2-2.1,6.71,6.71,0,0,1-.8-3.3,6.45,6.45,0,0,1,1.2-3.9,7.4,7.4,0,0,1,3.4-2.5,12.93,12.93,0,0,1,5.1-.9,16.79,16.79,0,0,1,5,.7,14.19,14.19,0,0,1,4.3,2Z" transform="translate(-36.6 -382.7)"/><rect class="cls-1" x="263.5" y="2.2" width="2.9" height="73.1"/><path class="cls-1" d="M100.7,400.8l-55.3,32a2.33,2.33,0,0,1-3.5-2V408.9a2.31,2.31,0,0,1,3.5-2l11,6.3a2.35,2.35,0,0,0,2.3,0l29.1-16.9a2.34,2.34,0,0,0,0-4L71.6,383a2.35,2.35,0,0,0-2.3,0L37.8,401.2a2.4,2.4,0,0,0-1.2,2V440a2.31,2.31,0,0,0,3.5,2l55.3-32a2.33,2.33,0,0,1,3.5,2v21.8a2.31,2.31,0,0,1-3.5,2l-10.9-6.3a2.35,2.35,0,0,0-2.3,0L53,446.4a2.34,2.34,0,0,0,0,4l16.2,9.3a2.35,2.35,0,0,0,2.3,0L103,441.5a2.4,2.4,0,0,0,1.2-2V402.7A2.3,2.3,0,0,0,100.7,400.8Z" transform="translate(-36.6 -382.7)"/><path class="cls-1" d="M138.4,437.6c0-2.8,2.8-3.9,6-3.9,3.7,0,8.6,1.4,11.1,3.8l3-4.8c-3.3-2.6-8.9-4.3-14.2-4.3-6.4,0-12.3,2.6-12.3,9.1,0,11.8,20.2,7.1,20.2,13.4,0,2.6-3,3.7-6.3,3.7-4,0-9.6-1.6-12.2-4.2l-3.1,4.9c3.2,2.9,9.1,4.6,14.7,4.6,6.9,0,13.4-2.7,13.4-9.1C158.7,438.9,138.4,443.6,138.4,437.6Z" transform="translate(-36.6 -382.7)"/><path class="cls-1" d="M173.1,428.8l-13.9,30.1h6.3l2.2-4.6h16.9l2.2,4.6h6.4l-13.9-30.1ZM170,449.1l6.1-13,6.1,13Z" transform="translate(-36.6 -382.7)"/><path class="cls-1" d="M218.8,442.8a8.22,8.22,0,0,0,1.8-5.2c0-4.2-3-8.4-8.8-8.4H196.5v29.6h17.8c5.8,0,8.7-4.2,8.7-8.4A8.86,8.86,0,0,0,218.8,442.8Zm-16.3-8.9h8.2a3.7,3.7,0,0,1,3.9,3.8,3.62,3.62,0,0,1-3.9,3.7h-8.2Zm10.7,19.9H202.5V446h10.7a3.75,3.75,0,0,1,4,3.9A3.86,3.86,0,0,1,213.2,453.8Z" transform="translate(-36.6 -382.7)"/><rect class="cls-1" x="191.4" y="46.5" width="6" height="29.6"/><polygon class="cls-1" points="201.9 46.5 201.9 51.5 213.9 51.5 213.9 76.1 219.9 76.1 219.9 51.5 231.9 51.5 231.9 46.5 201.9 46.5"/><path class="cls-1" d="M140.5,412.1h48.9V393.8h-5.1v12.4h-7.1v-9.4h-5.1v9.4H139.6a3.54,3.54,0,0,1-3.5-3.5v-5.9H131v6A9.52,9.52,0,0,0,140.5,412.1Z" transform="translate(-36.6 -382.7)"/><polygon class="cls-1" points="118.7 9.9 123 14.2 127.3 9.9 123 5.6 118.7 9.9 114.4 5.6 110.1 9.9 114.4 14.2 118.7 9.9"/><rect class="cls-1" x="178.08" y="415.45" width="6.1" height="6.1" transform="translate(-279.47 -132.05) rotate(-45)"/><polyline class="cls-1" points="194.4 29.4 231.9 29.4 231.9 29.4 231.9 11.1 225.9 11.1 225.9 23.5 219.9 23.5 219.9 14 213.9 14 213.9 23.5 207.9 23.5 207.9 11.1 201.9 11.1 201.9 23.5 165.8 23.5 165.8 0 159.9 0 159.9 29.4 194.4 29.4"/></svg>